<svg xmlns="http://www.w3.org/2000/svg" xmlns:xlink="http://www.w3.org/1999/xlink" width="1080" zoomAndPan="magnify" viewBox="0 0 810 809.999993" height="1080" preserveAspectRatio="xMidYMid meet" version="1.0"><defs><linearGradient x1="0" gradientTransform="matrix(809.999993, 0, 0, 809.999993, 0.0000035, 0.00002)" y1="0" x2="0" gradientUnits="userSpaceOnUse" y2="1" id="dc439f24a1"><stop stop-opacity="1" stop-color="rgb(0%, 16.499329%, 44.299316%)" offset="0"/><stop stop-opacity="1" stop-color="rgb(0.012207%, 16.470337%, 44.189453%)" offset="0.015625"/><stop stop-opacity="1" stop-color="rgb(0.0366211%, 16.413879%, 43.968201%)" offset="0.03125"/><stop stop-opacity="1" stop-color="rgb(0.0610352%, 16.357422%, 43.748474%)" offset="0.046875"/><stop stop-opacity="1" stop-color="rgb(0.0869751%, 16.300964%, 43.527222%)" offset="0.0625"/><stop stop-opacity="1" stop-color="rgb(0.111389%, 16.246033%, 43.307495%)" offset="0.078125"/><stop stop-opacity="1" stop-color="rgb(0.135803%, 16.189575%, 43.087769%)" offset="0.09375"/><stop stop-opacity="1" stop-color="rgb(0.161743%, 16.133118%, 42.866516%)" offset="0.109375"/><stop stop-opacity="1" stop-color="rgb(0.186157%, 16.07666%, 42.64679%)" offset="0.125"/><stop stop-opacity="1" stop-color="rgb(0.212097%, 16.020203%, 42.425537%)" offset="0.140625"/><stop stop-opacity="1" stop-color="rgb(0.236511%, 15.963745%, 42.205811%)" offset="0.15625"/><stop stop-opacity="1" stop-color="rgb(0.260925%, 15.907288%, 41.986084%)" offset="0.171875"/><stop stop-opacity="1" stop-color="rgb(0.286865%, 15.852356%, 41.764832%)" offset="0.1875"/><stop stop-opacity="1" stop-color="rgb(0.311279%, 15.795898%, 41.545105%)" offset="0.203125"/><stop stop-opacity="1" stop-color="rgb(0.335693%, 15.739441%, 41.325378%)" offset="0.21875"/><stop stop-opacity="1" stop-color="rgb(0.361633%, 15.682983%, 41.104126%)" offset="0.234375"/><stop stop-opacity="1" stop-color="rgb(0.386047%, 15.626526%, 40.884399%)" offset="0.25"/><stop stop-opacity="1" stop-color="rgb(0.411987%, 15.570068%, 40.663147%)" offset="0.265625"/><stop stop-opacity="1" stop-color="rgb(0.436401%, 15.513611%, 40.44342%)" offset="0.28125"/><stop stop-opacity="1" stop-color="rgb(0.460815%, 15.458679%, 40.223694%)" offset="0.296875"/><stop stop-opacity="1" stop-color="rgb(0.486755%, 15.402222%, 40.002441%)" offset="0.3125"/><stop stop-opacity="1" stop-color="rgb(0.511169%, 15.345764%, 39.782715%)" offset="0.328125"/><stop stop-opacity="1" stop-color="rgb(0.537109%, 15.289307%, 39.562988%)" offset="0.34375"/><stop stop-opacity="1" stop-color="rgb(0.561523%, 15.232849%, 39.341736%)" offset="0.359375"/><stop stop-opacity="1" stop-color="rgb(0.585938%, 15.176392%, 39.122009%)" offset="0.375"/><stop stop-opacity="1" stop-color="rgb(0.611877%, 15.119934%, 38.900757%)" offset="0.390625"/><stop stop-opacity="1" stop-color="rgb(0.636292%, 15.063477%, 38.68103%)" offset="0.40625"/><stop stop-opacity="1" stop-color="rgb(0.660706%, 15.008545%, 38.461304%)" offset="0.421875"/><stop stop-opacity="1" stop-color="rgb(0.686646%, 14.952087%, 38.240051%)" offset="0.4375"/><stop stop-opacity="1" stop-color="rgb(0.71106%, 14.89563%, 38.020325%)" offset="0.453125"/><stop stop-opacity="1" stop-color="rgb(0.737%, 14.839172%, 37.799072%)" offset="0.46875"/><stop stop-opacity="1" stop-color="rgb(0.761414%, 14.782715%, 37.579346%)" offset="0.484375"/><stop stop-opacity="1" stop-color="rgb(0.785828%, 14.726257%, 37.359619%)" offset="0.5"/><stop stop-opacity="1" stop-color="rgb(0.811768%, 14.6698%, 37.138367%)" offset="0.515625"/><stop stop-opacity="1" stop-color="rgb(0.836182%, 14.614868%, 36.91864%)" offset="0.53125"/><stop stop-opacity="1" stop-color="rgb(0.862122%, 14.558411%, 36.698914%)" offset="0.546875"/><stop stop-opacity="1" stop-color="rgb(0.886536%, 14.501953%, 36.477661%)" offset="0.5625"/><stop stop-opacity="1" stop-color="rgb(0.91095%, 14.445496%, 36.257935%)" offset="0.578125"/><stop stop-opacity="1" stop-color="rgb(0.93689%, 14.389038%, 36.036682%)" offset="0.59375"/><stop stop-opacity="1" stop-color="rgb(0.961304%, 14.332581%, 35.816956%)" offset="0.609375"/><stop stop-opacity="1" stop-color="rgb(0.985718%, 14.276123%, 35.597229%)" offset="0.625"/><stop stop-opacity="1" stop-color="rgb(1.011658%, 14.221191%, 35.375977%)" offset="0.640625"/><stop stop-opacity="1" stop-color="rgb(1.036072%, 14.164734%, 35.15625%)" offset="0.65625"/><stop stop-opacity="1" stop-color="rgb(1.062012%, 14.108276%, 34.934998%)" offset="0.671875"/><stop stop-opacity="1" stop-color="rgb(1.086426%, 14.051819%, 34.715271%)" offset="0.6875"/><stop stop-opacity="1" stop-color="rgb(1.11084%, 13.995361%, 34.495544%)" offset="0.703125"/><stop stop-opacity="1" stop-color="rgb(1.13678%, 13.938904%, 34.274292%)" offset="0.71875"/><stop stop-opacity="1" stop-color="rgb(1.161194%, 13.882446%, 34.054565%)" offset="0.734375"/><stop stop-opacity="1" stop-color="rgb(1.187134%, 13.825989%, 33.834839%)" offset="0.75"/><stop stop-opacity="1" stop-color="rgb(1.211548%, 13.771057%, 33.613586%)" offset="0.765625"/><stop stop-opacity="1" stop-color="rgb(1.235962%, 13.7146%, 33.39386%)" offset="0.78125"/><stop stop-opacity="1" stop-color="rgb(1.261902%, 13.658142%, 33.172607%)" offset="0.796875"/><stop stop-opacity="1" stop-color="rgb(1.286316%, 13.601685%, 32.952881%)" offset="0.8125"/><stop stop-opacity="1" stop-color="rgb(1.31073%, 13.545227%, 32.733154%)" offset="0.828125"/><stop stop-opacity="1" stop-color="rgb(1.33667%, 13.48877%, 32.511902%)" offset="0.84375"/><stop stop-opacity="1" stop-color="rgb(1.361084%, 13.432312%, 32.292175%)" offset="0.859375"/><stop stop-opacity="1" stop-color="rgb(1.387024%, 13.37738%, 32.070923%)" offset="0.875"/><stop stop-opacity="1" stop-color="rgb(1.411438%, 13.320923%, 31.851196%)" offset="0.890625"/><stop stop-opacity="1" stop-color="rgb(1.435852%, 13.264465%, 31.63147%)" offset="0.90625"/><stop stop-opacity="1" stop-color="rgb(1.461792%, 13.208008%, 31.410217%)" offset="0.921875"/><stop stop-opacity="1" stop-color="rgb(1.486206%, 13.15155%, 31.190491%)" offset="0.9375"/><stop stop-opacity="1" stop-color="rgb(1.512146%, 13.095093%, 30.970764%)" offset="0.953125"/><stop stop-opacity="1" stop-color="rgb(1.53656%, 13.038635%, 30.749512%)" offset="0.96875"/><stop stop-opacity="1" stop-color="rgb(1.560974%, 12.983704%, 30.529785%)" offset="0.984375"/><stop stop-opacity="1" stop-color="rgb(1.586914%, 12.927246%, 30.308533%)" offset="1"/></linearGradient><clipPath id="9aefd6be6f"><path d="M 123.625 29.875 L 686.125 29.875 L 686.125 779.875 L 123.625 779.875 Z M 123.625 29.875 " clip-rule="nonzero"/></clipPath><clipPath id="e846484a72"><path d="M 253.792969 118.535156 L 555.875 118.535156 L 555.875 535.203125 L 253.792969 535.203125 Z M 253.792969 118.535156 " clip-rule="nonzero"/></clipPath></defs><rect x="-81" fill="url(#dc439f24a1)" width="972" y="-80.999999" height="971.999992"/><path fill="#f7931a" d="M 376.589844 745.933594 C 169.710938 446.019531 131.308594 415.238281 131.308594 305.015625 C 131.308594 154.035156 253.703125 31.640625 404.683594 31.640625 C 555.664062 31.640625 678.058594 154.035156 678.058594 305.015625 C 678.058594 415.238281 639.65625 446.019531 432.777344 745.933594 C 419.203125 765.542969 390.164062 765.542969 376.589844 745.933594 Z M 376.589844 745.933594 " fill-opacity="1" fill-rule="nonzero"/><path fill="#ffffff" d="M 529.25 247.933594 C 525.214844 205.882812 488.890625 191.785156 443.0625 187.761719 L 443.0625 129.417969 L 407.566406 129.433594 L 407.554688 186.242188 C 398.222656 186.226562 388.699219 186.421875 379.195312 186.613281 L 379.214844 129.4375 L 343.714844 129.433594 L 343.710938 187.757812 C 336.023438 187.90625 328.464844 188.066406 321.105469 188.054688 L 321.101562 187.867188 L 272.121094 187.855469 L 272.125 225.78125 C 272.125 225.78125 298.359375 225.28125 297.921875 225.757812 C 312.304688 225.765625 316.976562 234.113281 318.34375 241.332031 L 318.355469 307.789062 C 319.34375 307.789062 320.628906 307.839844 322.113281 308.023438 L 318.355469 308.035156 L 318.355469 401.140625 C 317.714844 405.65625 315.054688 412.871094 304.992188 412.894531 C 305.460938 413.292969 279.191406 412.898438 279.191406 412.898438 L 272.136719 455.292969 L 318.359375 455.292969 C 326.949219 455.308594 335.410156 455.460938 343.703125 455.507812 L 343.722656 514.503906 L 379.199219 514.492188 L 379.199219 456.148438 C 388.9375 456.328125 398.367188 456.402344 407.570312 456.410156 L 407.554688 514.511719 L 443.050781 514.496094 L 443.058594 455.613281 C 502.765625 452.191406 544.542969 437.152344 549.730469 381.089844 C 553.929688 335.957031 532.691406 315.796875 498.800781 307.667969 C 519.40625 297.1875 532.261719 278.71875 529.25 247.933594 Z M 479.558594 374.097656 C 479.601562 418.191406 404.082031 413.171875 380.011719 413.195312 L 380.039062 335.019531 C 404.117188 335.035156 479.578125 328.113281 479.558594 374.097656 Z M 463.050781 263.804688 C 463.046875 303.925781 400.082031 299.226562 380.050781 299.226562 L 380.046875 228.351562 C 400.078125 228.351562 463.050781 221.957031 463.050781 263.804688 Z M 463.050781 263.804688 " fill-opacity="1" fill-rule="nonzero"/><g clip-path="url(#9aefd6be6f)"><path fill="#345d9d" d="M 375.972656 764.742188 C 163.132812 456.191406 123.625 424.519531 123.625 311.125 C 123.625 155.792969 249.542969 29.875 404.875 29.875 C 560.203125 29.875 686.125 155.792969 686.125 311.125 C 686.125 424.519531 646.617188 456.191406 433.777344 764.742188 C 419.8125 784.917969 389.9375 784.914062 375.972656 764.742188 Z M 375.972656 764.742188 " fill-opacity="1" fill-rule="nonzero"/></g><path fill="#ffffff" d="M 533.027344 252.398438 C 528.878906 209.132812 491.507812 194.628906 444.359375 190.492188 L 444.355469 130.46875 L 407.839844 130.484375 L 407.824219 188.925781 C 398.226562 188.914062 388.425781 189.113281 378.652344 189.3125 L 378.671875 130.484375 L 342.148438 130.480469 L 342.144531 190.488281 C 334.234375 190.640625 326.460938 190.808594 318.890625 190.792969 L 318.882812 190.601562 L 268.492188 190.589844 L 268.5 229.605469 C 268.5 229.605469 295.484375 229.089844 295.039062 229.585938 C 309.835938 229.589844 314.640625 238.183594 316.046875 245.605469 L 316.0625 313.976562 C 317.074219 313.976562 318.398438 314.027344 319.921875 314.21875 L 316.058594 314.230469 L 316.058594 410.015625 C 315.398438 414.664062 312.664062 422.085938 302.3125 422.113281 C 302.792969 422.519531 275.769531 422.117188 275.769531 422.117188 L 268.503906 465.730469 L 316.0625 465.730469 C 324.902344 465.746094 333.605469 465.902344 342.136719 465.953125 L 342.15625 526.648438 L 378.65625 526.636719 L 378.65625 466.609375 C 388.675781 466.796875 398.375 466.871094 407.84375 466.878906 L 407.824219 526.65625 L 444.34375 526.636719 L 444.351562 466.0625 C 505.78125 462.539062 548.761719 447.070312 554.101562 389.390625 C 558.417969 342.957031 536.570312 322.214844 501.707031 313.851562 C 522.898438 303.074219 536.128906 284.070312 533.027344 252.398438 Z M 481.902344 382.195312 C 481.949219 427.5625 404.253906 422.394531 379.492188 422.417969 L 379.519531 341.992188 C 404.292969 342.007812 481.925781 334.886719 481.902344 382.195312 Z M 464.921875 268.726562 C 464.917969 310.003906 400.140625 305.167969 379.53125 305.171875 L 379.527344 232.253906 C 400.136719 232.25 464.921875 225.671875 464.921875 268.726562 Z M 464.921875 268.726562 " fill-opacity="1" fill-rule="nonzero"/><g clip-path="url(#e846484a72)"><path fill="#ffffff" d="M 665.570312 334.101562 C 665.570312 338.464844 665.464844 342.824219 665.25 347.179688 C 665.035156 351.539062 664.714844 355.890625 664.285156 360.234375 C 663.859375 364.574219 663.328125 368.902344 662.6875 373.21875 C 662.046875 377.535156 661.296875 381.835938 660.449219 386.113281 C 659.597656 390.390625 658.640625 394.648438 657.578125 398.878906 C 656.519531 403.113281 655.359375 407.316406 654.089844 411.492188 C 652.824219 415.667969 651.457031 419.808594 649.988281 423.917969 C 648.515625 428.027344 646.945312 432.09375 645.277344 436.125 C 643.605469 440.15625 641.839844 444.140625 639.972656 448.089844 C 638.109375 452.03125 636.144531 455.925781 634.089844 459.773438 C 632.03125 463.621094 629.882812 467.417969 627.640625 471.160156 C 625.394531 474.902344 623.0625 478.589844 620.640625 482.21875 C 618.214844 485.84375 615.703125 489.410156 613.105469 492.917969 C 610.503906 496.421875 607.820312 499.855469 605.054688 503.230469 C 602.289062 506.601562 599.4375 509.90625 596.507812 513.136719 C 593.578125 516.371094 590.570312 519.53125 587.484375 522.617188 C 584.398438 525.703125 581.242188 528.710938 578.007812 531.640625 C 574.773438 534.570312 571.472656 537.417969 568.101562 540.183594 C 564.726562 542.957031 561.285156 545.636719 557.78125 548.238281 C 554.277344 550.835938 550.714844 553.347656 547.085938 555.769531 C 543.457031 558.195312 539.773438 560.53125 536.03125 562.773438 C 532.285156 565.015625 528.492188 567.164062 524.644531 569.222656 C 520.796875 571.28125 516.898438 573.242188 512.957031 575.105469 C 509.011719 576.96875 505.027344 578.738281 500.992188 580.410156 C 496.964844 582.078125 492.890625 583.644531 488.785156 585.117188 C 484.675781 586.585938 480.535156 587.957031 476.359375 589.222656 C 472.183594 590.488281 467.980469 591.652344 463.75 592.714844 C 459.515625 593.773438 455.261719 594.726562 450.980469 595.578125 C 446.699219 596.433594 442.402344 597.175781 438.085938 597.816406 C 433.773438 598.457031 429.441406 598.988281 425.097656 599.417969 C 420.757812 599.847656 416.40625 600.167969 412.050781 600.382812 C 407.691406 600.59375 403.332031 600.703125 398.96875 600.703125 C 394.605469 600.703125 390.246094 600.59375 385.886719 600.382812 C 381.53125 600.167969 377.179688 599.847656 372.839844 599.417969 C 368.496094 598.988281 364.164062 598.457031 359.851562 597.816406 C 355.535156 597.175781 351.238281 596.433594 346.957031 595.578125 C 342.675781 594.726562 338.425781 593.773438 334.1875 592.714844 C 329.957031 591.652344 325.753906 590.488281 321.582031 589.222656 C 317.402344 587.957031 313.261719 586.585938 309.152344 585.117188 C 305.046875 583.644531 300.976562 582.078125 296.945312 580.410156 C 292.914062 578.738281 288.925781 576.96875 284.980469 575.105469 C 281.039062 573.242188 277.144531 571.28125 273.292969 569.222656 C 269.445312 567.164062 265.652344 565.015625 261.910156 562.773438 C 258.164062 560.53125 254.480469 558.195312 250.851562 555.769531 C 247.222656 553.347656 243.65625 550.835938 240.15625 548.238281 C 236.652344 545.636719 233.210938 542.957031 229.835938 540.183594 C 226.464844 537.417969 223.164062 534.570312 219.929688 531.640625 C 216.699219 528.710938 213.539062 525.703125 210.453125 522.617188 C 207.371094 519.53125 204.359375 516.371094 201.429688 513.136719 C 198.5 509.90625 195.652344 506.601562 192.882812 503.230469 C 190.117188 499.855469 187.433594 496.421875 184.832031 492.917969 C 182.230469 489.410156 179.722656 485.84375 177.296875 482.21875 C 174.875 478.589844 172.542969 474.902344 170.296875 471.160156 C 168.054688 467.417969 165.90625 463.621094 163.847656 459.773438 C 161.789062 455.925781 159.828125 452.03125 157.960938 448.089844 C 156.101562 444.140625 154.332031 440.15625 152.660156 436.125 C 150.992188 432.09375 149.421875 428.027344 147.949219 423.917969 C 146.484375 419.808594 145.117188 415.667969 143.847656 411.492188 C 142.578125 407.316406 141.417969 403.113281 140.359375 398.878906 C 139.296875 394.648438 138.339844 390.390625 137.492188 386.113281 C 136.636719 381.835938 135.890625 377.535156 135.253906 373.21875 C 134.613281 368.902344 134.082031 364.574219 133.648438 360.234375 C 133.222656 355.890625 132.90625 351.539062 132.6875 347.179688 C 132.472656 342.824219 132.371094 338.464844 132.371094 334.101562 C 132.371094 329.734375 132.472656 325.378906 132.6875 321.019531 C 132.90625 316.660156 133.222656 312.308594 133.648438 307.96875 C 134.082031 303.625 134.613281 299.296875 135.253906 294.980469 C 135.890625 290.667969 136.636719 286.371094 137.492188 282.089844 C 138.339844 277.808594 139.296875 273.554688 140.359375 269.324219 C 141.417969 265.085938 142.578125 260.886719 143.847656 256.710938 C 145.117188 252.535156 146.484375 248.390625 147.949219 244.285156 C 149.421875 240.179688 150.992188 236.109375 152.660156 232.078125 C 154.332031 228.046875 156.101562 224.058594 157.960938 220.117188 C 159.828125 216.167969 161.789062 212.273438 163.847656 208.425781 C 165.90625 204.578125 168.054688 200.78125 170.296875 197.039062 C 172.542969 193.300781 174.875 189.613281 177.296875 185.984375 C 179.722656 182.359375 182.230469 178.792969 184.832031 175.289062 C 187.433594 171.78125 190.117188 168.34375 192.882812 164.972656 C 195.652344 161.597656 198.5 158.296875 201.429688 155.0625 C 204.359375 151.828125 207.371094 148.671875 210.453125 145.585938 C 213.539062 142.5 216.699219 139.492188 219.929688 136.5625 C 223.164062 133.632812 226.464844 130.78125 229.835938 128.015625 C 233.210938 125.246094 236.652344 122.5625 240.15625 119.964844 C 243.65625 117.367188 247.222656 114.851562 250.851562 112.429688 C 254.480469 110.007812 258.164062 107.671875 261.910156 105.429688 C 265.652344 103.183594 269.445312 101.035156 273.292969 98.976562 C 277.144531 96.925781 281.039062 94.960938 284.980469 93.097656 C 288.925781 91.230469 292.914062 89.460938 296.945312 87.792969 C 300.976562 86.125 305.046875 84.554688 309.152344 83.085938 C 313.261719 81.613281 317.402344 80.246094 321.582031 78.980469 C 325.753906 77.714844 329.957031 76.550781 334.1875 75.488281 C 338.425781 74.429688 342.675781 73.472656 346.957031 72.621094 C 351.238281 71.773438 355.535156 71.027344 359.851562 70.386719 C 364.164062 69.746094 368.496094 69.210938 372.839844 68.785156 C 377.179688 68.355469 381.53125 68.035156 385.886719 67.824219 C 390.246094 67.605469 394.605469 67.5 398.96875 67.5 C 403.332031 67.5 407.691406 67.605469 412.050781 67.824219 C 416.40625 68.035156 420.757812 68.355469 425.097656 68.785156 C 429.441406 69.210938 433.773438 69.746094 438.085938 70.386719 C 442.402344 71.027344 446.699219 71.773438 450.980469 72.621094 C 455.261719 73.472656 459.515625 74.429688 463.75 75.488281 C 467.980469 76.550781 472.183594 77.714844 476.359375 78.980469 C 480.535156 80.246094 484.675781 81.613281 488.785156 83.085938 C 492.890625 84.554688 496.964844 86.125 500.992188 87.792969 C 505.027344 89.460938 509.011719 91.230469 512.957031 93.097656 C 516.898438 94.960938 520.796875 96.925781 524.644531 98.976562 C 528.492188 101.035156 532.285156 103.183594 536.03125 105.429688 C 539.773438 107.671875 543.457031 110.007812 547.085938 112.429688 C 550.714844 114.851562 554.277344 117.367188 557.78125 119.964844 C 561.285156 122.5625 564.726562 125.246094 568.101562 128.015625 C 571.472656 130.78125 574.773438 133.632812 578.007812 136.5625 C 581.242188 139.492188 584.398438 142.5 587.484375 145.585938 C 590.570312 148.671875 593.578125 151.828125 596.507812 155.0625 C 599.4375 158.296875 602.289062 161.597656 605.054688 164.972656 C 607.820312 168.34375 610.503906 171.78125 613.105469 175.289062 C 615.703125 178.792969 618.214844 182.359375 620.640625 185.984375 C 623.0625 189.613281 625.394531 193.300781 627.640625 197.039062 C 629.882812 200.78125 632.03125 204.578125 634.089844 208.425781 C 636.144531 212.273438 638.109375 216.167969 639.972656 220.117188 C 641.839844 224.058594 643.605469 228.046875 645.277344 232.078125 C 646.945312 236.109375 648.515625 240.179688 649.988281 244.285156 C 651.457031 248.390625 652.824219 252.535156 654.089844 256.710938 C 655.359375 260.886719 656.519531 265.085938 657.578125 269.324219 C 658.640625 273.554688 659.597656 277.808594 660.449219 282.089844 C 661.296875 286.371094 662.046875 290.667969 662.6875 294.980469 C 663.328125 299.296875 663.859375 303.625 664.285156 307.96875 C 664.714844 312.308594 665.035156 316.660156 665.25 321.019531 C 665.464844 325.378906 665.570312 329.734375 665.570312 334.101562 Z M 665.570312 334.101562 " fill-opacity="1" fill-rule="nonzero"/><path fill="#345d9d" d="M 398.96875 35.144531 C 394.078125 35.144531 389.1875 35.261719 384.300781 35.5 C 379.414062 35.742188 374.535156 36.101562 369.667969 36.582031 C 364.796875 37.0625 359.941406 37.660156 355.101562 38.378906 C 350.261719 39.097656 345.445312 39.933594 340.644531 40.886719 C 335.84375 41.84375 331.074219 42.914062 326.328125 44.101562 C 321.582031 45.289062 316.867188 46.59375 312.1875 48.015625 C 307.503906 49.4375 302.859375 50.972656 298.25 52.617188 C 293.648438 54.265625 289.082031 56.027344 284.5625 57.902344 C 280.042969 59.769531 275.570312 61.753906 271.144531 63.847656 C 266.726562 65.9375 262.355469 68.136719 258.042969 70.445312 C 253.726562 72.75 249.46875 75.160156 245.273438 77.675781 C 241.078125 80.191406 236.945312 82.808594 232.875 85.527344 C 228.808594 88.242188 224.808594 91.0625 220.878906 93.976562 C 216.949219 96.890625 213.09375 99.902344 209.3125 103.003906 C 205.527344 106.105469 201.824219 109.300781 198.199219 112.589844 C 194.578125 115.871094 191.03125 119.246094 187.574219 122.707031 C 184.113281 126.167969 180.742188 129.707031 177.453125 133.332031 C 174.167969 136.960938 170.976562 140.664062 167.871094 144.441406 C 164.765625 148.226562 161.757812 152.082031 158.84375 156.011719 C 155.929688 159.941406 153.113281 163.941406 150.394531 168.007812 C 147.675781 172.074219 145.058594 176.210938 142.542969 180.40625 C 140.03125 184.601562 137.617188 188.859375 135.308594 193.171875 C 133.007812 197.488281 130.808594 201.855469 128.710938 206.28125 C 126.621094 210.703125 124.640625 215.175781 122.765625 219.695312 C 120.898438 224.214844 119.136719 228.777344 117.484375 233.386719 C 115.835938 237.988281 114.304688 242.632812 112.886719 247.316406 C 111.464844 252 110.15625 256.714844 108.972656 261.460938 C 107.78125 266.207031 106.710938 270.980469 105.757812 275.777344 C 104.800781 280.574219 103.964844 285.394531 103.246094 290.234375 C 102.53125 295.074219 101.929688 299.929688 101.449219 304.796875 C 100.972656 309.667969 100.609375 314.546875 100.371094 319.433594 C 100.132812 324.316406 100.007812 329.207031 100.007812 334.101562 C 100.007812 338.992188 100.132812 343.882812 100.371094 348.769531 C 100.609375 353.660156 100.972656 358.535156 101.449219 363.402344 C 101.929688 368.273438 102.53125 373.128906 103.246094 377.96875 C 103.964844 382.808594 104.800781 387.625 105.757812 392.425781 C 106.710938 397.222656 107.78125 401.996094 108.972656 406.738281 C 110.15625 411.488281 111.464844 416.203125 112.886719 420.882812 C 114.304688 425.566406 115.835938 430.210938 117.484375 434.816406 C 119.136719 439.421875 120.898438 443.988281 122.765625 448.507812 C 124.640625 453.027344 126.621094 457.5 128.710938 461.921875 C 130.808594 466.347656 133.007812 470.710938 135.308594 475.027344 C 137.617188 479.34375 140.03125 483.597656 142.542969 487.792969 C 145.058594 491.992188 147.675781 496.125 150.394531 500.195312 C 153.113281 504.261719 155.929688 508.257812 158.84375 512.191406 C 161.757812 516.117188 164.765625 519.972656 167.871094 523.757812 C 170.976562 527.539062 174.167969 531.246094 177.453125 534.867188 C 180.742188 538.492188 184.113281 542.039062 187.574219 545.496094 C 191.03125 548.957031 194.578125 552.328125 198.199219 555.613281 C 201.824219 558.898438 205.527344 562.09375 209.3125 565.199219 C 213.09375 568.304688 216.949219 571.3125 220.878906 574.226562 C 224.808594 577.140625 228.808594 579.957031 232.875 582.675781 C 236.945312 585.394531 241.078125 588.011719 245.273438 590.527344 C 249.46875 593.042969 253.726562 595.453125 258.042969 597.757812 C 262.355469 600.0625 266.726562 602.261719 271.144531 604.355469 C 275.570312 606.445312 280.042969 608.429688 284.5625 610.300781 C 289.082031 612.175781 293.648438 613.933594 298.25 615.582031 C 302.859375 617.234375 307.503906 618.765625 312.1875 620.1875 C 316.867188 621.605469 321.582031 622.910156 326.328125 624.101562 C 331.074219 625.289062 335.84375 626.363281 340.644531 627.3125 C 345.445312 628.269531 350.261719 629.105469 355.101562 629.824219 C 359.941406 630.542969 364.796875 631.140625 369.667969 631.621094 C 374.535156 632.097656 379.414062 632.460938 384.300781 632.699219 C 389.1875 632.941406 394.078125 633.058594 398.96875 633.058594 C 403.859375 633.058594 408.75 632.941406 413.636719 632.699219 C 418.523438 632.460938 423.402344 632.097656 428.269531 631.621094 C 433.140625 631.140625 437.996094 630.542969 442.835938 629.824219 C 447.675781 629.105469 452.492188 628.269531 457.292969 627.3125 C 462.09375 626.363281 466.863281 625.289062 471.609375 624.101562 C 476.355469 622.910156 481.070312 621.605469 485.75 620.1875 C 490.433594 618.765625 495.078125 617.234375 499.683594 615.582031 C 504.292969 613.933594 508.855469 612.175781 513.378906 610.300781 C 517.894531 608.429688 522.367188 606.445312 526.789062 604.355469 C 531.210938 602.261719 535.582031 600.0625 539.894531 597.757812 C 544.210938 595.453125 548.46875 593.042969 552.664062 590.527344 C 556.859375 588.011719 560.992188 585.394531 565.0625 582.675781 C 569.128906 579.957031 573.128906 577.140625 577.058594 574.226562 C 580.988281 571.3125 584.84375 568.304688 588.625 565.199219 C 592.410156 562.097656 596.113281 558.898438 599.738281 555.613281 C 603.363281 552.328125 606.90625 548.957031 610.363281 545.496094 C 613.824219 542.039062 617.195312 538.492188 620.484375 534.867188 C 623.769531 531.246094 626.960938 527.539062 630.066406 523.757812 C 633.171875 519.972656 636.179688 516.117188 639.09375 512.191406 C 642.007812 508.257812 644.824219 504.261719 647.542969 500.195312 C 650.261719 496.125 652.878906 491.992188 655.394531 487.792969 C 657.910156 483.597656 660.320312 479.34375 662.628906 475.027344 C 664.933594 470.710938 667.132812 466.347656 669.226562 461.921875 C 671.316406 457.5 673.296875 453.027344 675.171875 448.507812 C 677.042969 443.988281 678.804688 439.421875 680.453125 434.816406 C 682.097656 430.210938 683.636719 425.566406 685.054688 420.882812 C 686.472656 416.203125 687.78125 411.488281 688.964844 406.738281 C 690.15625 401.996094 691.226562 397.222656 692.183594 392.425781 C 693.136719 387.625 693.972656 382.808594 694.691406 377.96875 C 695.410156 373.128906 696.007812 368.273438 696.484375 363.402344 C 696.96875 358.535156 697.328125 353.660156 697.566406 348.769531 C 697.804688 343.882812 697.925781 338.992188 697.925781 334.101562 C 697.941406 329.222656 697.835938 324.347656 697.609375 319.472656 C 697.386719 314.597656 697.039062 309.734375 696.578125 304.878906 C 696.113281 300.023438 695.53125 295.179688 694.828125 290.351562 C 694.128906 285.523438 693.308594 280.714844 692.371094 275.929688 C 691.429688 271.140625 690.378906 266.378906 689.207031 261.644531 C 688.035156 256.910156 686.746094 252.203125 685.34375 247.53125 C 683.941406 242.859375 682.421875 238.226562 680.796875 233.628906 C 679.164062 229.027344 677.421875 224.472656 675.570312 219.960938 C 673.714844 215.449219 671.753906 210.984375 669.675781 206.566406 C 667.605469 202.148438 665.429688 197.789062 663.136719 193.480469 C 660.851562 189.167969 658.460938 184.917969 655.964844 180.726562 C 653.46875 176.535156 650.875 172.410156 648.171875 168.34375 C 645.472656 164.28125 642.675781 160.285156 639.785156 156.355469 C 636.890625 152.433594 633.898438 148.578125 630.8125 144.796875 C 627.734375 141.015625 624.558594 137.3125 621.289062 133.691406 C 618.023438 130.066406 614.671875 126.523438 611.230469 123.0625 C 607.792969 119.605469 604.273438 116.230469 600.667969 112.945312 C 597.0625 109.660156 593.378906 106.460938 589.613281 103.355469 C 585.851562 100.25 582.019531 97.238281 578.109375 94.320312 C 574.199219 91.40625 570.21875 88.582031 566.167969 85.863281 C 562.121094 83.140625 558.007812 80.519531 553.832031 77.996094 C 549.65625 75.480469 545.417969 73.0625 541.121094 70.75 C 536.824219 68.4375 532.476562 66.230469 528.074219 64.132812 C 523.667969 62.035156 519.214844 60.046875 514.714844 58.164062 C 510.210938 56.285156 505.664062 54.515625 501.078125 52.859375 C 496.488281 51.203125 491.863281 49.660156 487.203125 48.230469 C 482.535156 46.800781 477.835938 45.484375 473.109375 44.289062 C 468.382812 43.085938 463.625 42.003906 458.84375 41.039062 C 454.0625 40.074219 449.261719 39.226562 444.433594 38.496094 C 439.613281 37.765625 434.773438 37.15625 429.921875 36.664062 C 425.066406 36.171875 420.203125 35.796875 415.332031 35.546875 C 410.457031 35.292969 405.585938 35.15625 400.707031 35.144531 Z M 404.035156 344.238281 L 372.910156 449.195312 L 539.402344 449.195312 C 539.949219 449.175781 540.5 449.214844 541.042969 449.300781 C 541.589844 449.390625 542.121094 449.53125 542.632812 449.722656 C 543.152344 449.914062 543.648438 450.15625 544.113281 450.449219 C 544.582031 450.738281 545.019531 451.074219 545.421875 451.449219 C 545.828125 451.824219 546.191406 452.238281 546.511719 452.683594 C 546.832031 453.132812 547.109375 453.609375 547.335938 454.109375 C 547.566406 454.613281 547.746094 455.132812 547.867188 455.667969 C 547.996094 456.207031 548.066406 456.75 548.085938 457.304688 L 548.085938 460.054688 L 533.609375 510.003906 C 533.449219 510.589844 533.246094 511.15625 532.988281 511.707031 C 532.734375 512.257812 532.433594 512.785156 532.089844 513.285156 C 531.746094 513.785156 531.367188 514.257812 530.945312 514.695312 C 530.519531 515.128906 530.066406 515.527344 529.574219 515.882812 C 529.085938 516.246094 528.566406 516.558594 528.027344 516.832031 C 527.484375 517.101562 526.921875 517.328125 526.339844 517.503906 C 525.757812 517.679688 525.167969 517.808594 524.5625 517.886719 C 523.964844 517.964844 523.355469 517.988281 522.753906 517.964844 L 267.949219 517.964844 L 310.65625 372.464844 L 262.882812 386.945312 L 273.738281 353.644531 L 321.515625 339.167969 L 381.59375 135.035156 C 381.761719 134.453125 381.972656 133.886719 382.226562 133.339844 C 382.488281 132.792969 382.789062 132.269531 383.136719 131.773438 C 383.480469 131.273438 383.863281 130.808594 384.285156 130.371094 C 384.710938 129.9375 385.164062 129.542969 385.652344 129.1875 C 386.140625 128.824219 386.65625 128.511719 387.199219 128.238281 C 387.742188 127.964844 388.296875 127.738281 388.875 127.558594 C 389.453125 127.382812 390.042969 127.25 390.644531 127.167969 C 391.246094 127.085938 391.847656 127.054688 392.453125 127.074219 L 456.878906 127.074219 C 457.429688 127.054688 457.976562 127.089844 458.523438 127.179688 C 459.066406 127.265625 459.597656 127.40625 460.113281 127.601562 C 460.632812 127.792969 461.125 128.035156 461.59375 128.324219 C 462.0625 128.617188 462.5 128.953125 462.902344 129.328125 C 463.304688 129.703125 463.671875 130.117188 463.992188 130.566406 C 464.3125 131.011719 464.589844 131.488281 464.816406 131.988281 C 465.042969 132.492188 465.222656 133.007812 465.347656 133.546875 C 465.476562 134.082031 465.546875 134.628906 465.566406 135.179688 L 465.566406 137.933594 L 414.890625 310.210938 L 462.667969 295.738281 L 452.535156 330.480469 Z M 404.035156 344.238281 " fill-opacity="1" fill-rule="nonzero"/></g></svg>