<svg xmlns="http://www.w3.org/2000/svg" xmlns:xlink="http://www.w3.org/1999/xlink" width="1080" zoomAndPan="magnify" viewBox="0 0 810 809.999993" height="1080" preserveAspectRatio="xMidYMid meet" version="1.0"><defs><clipPath id="8a58c557fc"><path d="M 101.25 0 L 708.75 0 L 708.75 810 L 101.25 810 Z M 101.25 0 " clip-rule="nonzero"/></clipPath><clipPath id="d8628ce570"><path d="M 241.832031 95.753906 L 568.082031 95.753906 L 568.082031 545.753906 L 241.832031 545.753906 Z M 241.832031 95.753906 " clip-rule="nonzero"/></clipPath></defs><g clip-path="url(#8a58c557fc)"><path fill="#345d9d" d="M 373.785156 793.65625 C 143.917969 460.421875 101.25 426.21875 101.25 303.75 C 101.25 135.992188 237.242188 0 405 0 C 572.757812 0 708.75 135.992188 708.75 303.75 C 708.75 426.21875 666.082031 460.421875 436.214844 793.65625 C 421.132812 815.449219 388.867188 815.445312 373.785156 793.65625 Z M 373.785156 793.65625 " fill-opacity="1" fill-rule="nonzero"/></g><path fill="#ffffff" d="M 543.40625 240.328125 C 538.925781 193.601562 498.566406 177.9375 447.644531 173.46875 L 447.640625 108.640625 L 408.203125 108.660156 L 408.1875 171.777344 C 397.820312 171.761719 387.238281 171.980469 376.679688 172.195312 L 376.703125 108.660156 L 337.257812 108.65625 L 337.253906 173.464844 C 328.710938 173.628906 320.3125 173.808594 312.136719 173.792969 L 312.128906 173.585938 L 257.707031 173.574219 L 257.714844 215.710938 C 257.714844 215.710938 286.859375 215.152344 286.378906 215.6875 C 302.359375 215.695312 307.546875 224.972656 309.066406 232.992188 L 309.082031 306.832031 C 310.175781 306.832031 311.605469 306.886719 313.253906 307.09375 L 309.078125 307.105469 L 309.078125 410.554688 C 308.367188 415.574219 305.414062 423.589844 294.234375 423.617188 C 294.753906 424.058594 265.566406 423.621094 265.566406 423.621094 L 257.722656 470.726562 L 309.082031 470.726562 C 318.628906 470.742188 328.03125 470.910156 337.242188 470.964844 L 337.265625 536.515625 L 376.683594 536.503906 L 376.683594 471.675781 C 387.507812 471.875 397.980469 471.957031 408.207031 471.964844 L 408.1875 536.523438 L 447.628906 536.503906 L 447.636719 471.082031 C 513.980469 467.277344 560.398438 450.570312 566.164062 388.277344 C 570.828125 338.128906 547.234375 315.726562 509.578125 306.695312 C 532.46875 295.054688 546.753906 274.53125 543.40625 240.328125 Z M 488.191406 380.507812 C 488.242188 429.503906 404.332031 423.921875 377.585938 423.949219 L 377.617188 337.085938 C 404.371094 337.105469 488.214844 329.414062 488.191406 380.507812 Z M 469.851562 257.960938 C 469.847656 302.539062 399.886719 297.316406 377.628906 297.320312 L 377.625 218.570312 C 399.882812 218.566406 469.851562 211.460938 469.851562 257.960938 Z M 469.851562 257.960938 " fill-opacity="1" fill-rule="nonzero"/><g clip-path="url(#d8628ce570)"><path fill="#ffffff" d="M 686.550781 328.566406 C 686.550781 333.277344 686.4375 337.988281 686.207031 342.691406 C 685.972656 347.398438 685.628906 352.097656 685.164062 356.789062 C 684.703125 361.476562 684.128906 366.152344 683.4375 370.8125 C 682.746094 375.472656 681.9375 380.117188 681.019531 384.738281 C 680.101562 389.359375 679.070312 393.957031 677.921875 398.527344 C 676.777344 403.097656 675.523438 407.636719 674.152344 412.148438 C 672.785156 416.65625 671.308594 421.128906 669.722656 425.566406 C 668.132812 430.003906 666.4375 434.398438 664.636719 438.75 C 662.832031 443.105469 660.921875 447.410156 658.90625 451.671875 C 656.894531 455.929688 654.773438 460.136719 652.554688 464.292969 C 650.332031 468.449219 648.011719 472.546875 645.589844 476.589844 C 643.164062 480.632812 640.644531 484.613281 638.027344 488.53125 C 635.410156 492.449219 632.695312 496.300781 629.890625 500.085938 C 627.082031 503.871094 624.183594 507.582031 621.195312 511.226562 C 618.207031 514.867188 615.128906 518.433594 611.964844 521.925781 C 608.800781 525.417969 605.550781 528.832031 602.21875 532.164062 C 598.886719 535.496094 595.476562 538.742188 591.984375 541.90625 C 588.492188 545.070312 584.925781 548.148438 581.285156 551.136719 C 577.640625 554.128906 573.925781 557.023438 570.140625 559.832031 C 566.355469 562.640625 562.507812 565.351562 558.589844 567.96875 C 554.667969 570.585938 550.691406 573.109375 546.648438 575.53125 C 542.605469 577.953125 538.507812 580.273438 534.351562 582.496094 C 530.195312 584.71875 525.988281 586.835938 521.730469 588.851562 C 517.46875 590.863281 513.164062 592.773438 508.808594 594.578125 C 504.457031 596.378906 500.058594 598.074219 495.625 599.664062 C 491.1875 601.25 486.714844 602.730469 482.203125 604.097656 C 477.695312 605.464844 473.15625 606.722656 468.585938 607.867188 C 464.011719 609.011719 459.417969 610.042969 454.796875 610.960938 C 450.171875 611.882812 445.53125 612.6875 440.871094 613.378906 C 436.210938 614.070312 431.535156 614.644531 426.84375 615.109375 C 422.15625 615.570312 417.457031 615.917969 412.75 616.148438 C 408.042969 616.378906 403.335938 616.496094 398.621094 616.496094 C 393.910156 616.496094 389.203125 616.378906 384.496094 616.148438 C 379.789062 615.917969 375.089844 615.570312 370.402344 615.109375 C 365.710938 614.644531 361.035156 614.070312 356.375 613.378906 C 351.714844 612.6875 347.074219 611.882812 342.449219 610.960938 C 337.828125 610.042969 333.234375 609.011719 328.660156 607.867188 C 324.089844 606.722656 319.550781 605.464844 315.042969 604.097656 C 310.53125 602.730469 306.058594 601.25 301.621094 599.664062 C 297.1875 598.074219 292.789062 596.378906 288.4375 594.578125 C 284.082031 592.773438 279.777344 590.863281 275.515625 588.851562 C 271.257812 586.835938 267.050781 584.71875 262.894531 582.496094 C 258.738281 580.273438 254.640625 577.953125 250.597656 575.53125 C 246.554688 573.109375 242.574219 570.585938 238.65625 567.96875 C 234.738281 565.351562 230.886719 562.640625 227.105469 559.832031 C 223.320312 557.023438 219.605469 554.128906 215.960938 551.136719 C 212.320312 548.148438 208.753906 545.070312 205.261719 541.90625 C 201.769531 538.742188 198.359375 535.496094 195.027344 532.164062 C 191.695312 528.832031 188.445312 525.417969 185.28125 521.925781 C 182.117188 518.433594 179.039062 514.867188 176.050781 511.226562 C 173.0625 507.582031 170.164062 503.871094 167.355469 500.085938 C 164.546875 496.300781 161.835938 492.449219 159.21875 488.53125 C 156.601562 484.613281 154.082031 480.632812 151.65625 476.589844 C 149.234375 472.546875 146.914062 468.449219 144.691406 464.292969 C 142.46875 460.136719 140.351562 455.929688 138.335938 451.671875 C 136.324219 447.410156 134.414062 443.105469 132.609375 438.75 C 130.808594 434.398438 129.113281 430.003906 127.523438 425.566406 C 125.9375 421.128906 124.460938 416.65625 123.089844 412.148438 C 121.722656 407.636719 120.46875 403.097656 119.324219 398.527344 C 118.175781 393.957031 117.144531 389.359375 116.226562 384.738281 C 115.304688 380.117188 114.5 375.472656 113.808594 370.8125 C 113.117188 366.152344 112.542969 361.476562 112.078125 356.789062 C 111.617188 352.097656 111.273438 347.398438 111.039062 342.691406 C 110.808594 337.988281 110.695312 333.277344 110.695312 328.566406 C 110.695312 323.851562 110.808594 319.144531 111.039062 314.4375 C 111.273438 309.730469 111.617188 305.03125 112.078125 300.34375 C 112.542969 295.652344 113.117188 290.976562 113.808594 286.316406 C 114.5 281.65625 115.304688 277.015625 116.226562 272.394531 C 117.144531 267.769531 118.175781 263.175781 119.324219 258.605469 C 120.46875 254.03125 121.722656 249.492188 123.089844 244.984375 C 124.460938 240.472656 125.9375 236 127.523438 231.566406 C 129.113281 227.128906 130.808594 222.734375 132.609375 218.378906 C 134.414062 214.027344 136.324219 209.71875 138.335938 205.460938 C 140.351562 201.199219 142.46875 196.992188 144.691406 192.835938 C 146.914062 188.679688 149.234375 184.582031 151.65625 180.539062 C 154.082031 176.5 156.601562 172.519531 159.21875 168.601562 C 161.835938 164.683594 164.546875 160.832031 167.355469 157.046875 C 170.164062 153.261719 173.0625 149.546875 176.050781 145.90625 C 179.039062 142.261719 182.117188 138.695312 185.28125 135.203125 C 188.445312 131.710938 191.695312 128.300781 195.027344 124.96875 C 198.359375 121.636719 201.769531 118.386719 205.261719 115.222656 C 208.753906 112.058594 212.320312 108.980469 215.960938 105.992188 C 219.605469 103.003906 223.320312 100.105469 227.105469 97.296875 C 230.886719 94.492188 234.738281 91.777344 238.65625 89.160156 C 242.574219 86.542969 246.554688 84.023438 250.597656 81.601562 C 254.640625 79.175781 258.738281 76.855469 262.894531 74.632812 C 267.050781 72.414062 271.257812 70.292969 275.515625 68.28125 C 279.777344 66.265625 284.082031 64.355469 288.4375 62.554688 C 292.789062 60.75 297.1875 59.054688 301.621094 57.46875 C 306.058594 55.878906 310.53125 54.402344 315.042969 53.035156 C 319.550781 51.667969 324.089844 50.410156 328.660156 49.265625 C 333.234375 48.121094 337.828125 47.085938 342.449219 46.167969 C 347.074219 45.25 351.714844 44.445312 356.375 43.753906 C 361.035156 43.0625 365.710938 42.484375 370.402344 42.023438 C 375.089844 41.558594 379.789062 41.214844 384.496094 40.984375 C 389.203125 40.75 393.910156 40.636719 398.621094 40.636719 C 403.335938 40.636719 408.042969 40.75 412.75 40.984375 C 417.457031 41.214844 422.15625 41.558594 426.84375 42.023438 C 431.535156 42.484375 436.210938 43.0625 440.871094 43.753906 C 445.53125 44.445312 450.171875 45.25 454.796875 46.167969 C 459.417969 47.085938 464.011719 48.121094 468.585938 49.265625 C 473.15625 50.410156 477.695312 51.667969 482.203125 53.035156 C 486.714844 54.402344 491.1875 55.878906 495.625 57.46875 C 500.058594 59.054688 504.457031 60.75 508.808594 62.554688 C 513.164062 64.355469 517.46875 66.265625 521.730469 68.28125 C 525.988281 70.292969 530.195312 72.414062 534.351562 74.632812 C 538.507812 76.855469 542.605469 79.175781 546.648438 81.601562 C 550.691406 84.023438 554.667969 86.542969 558.589844 89.160156 C 562.507812 91.777344 566.355469 94.492188 570.140625 97.296875 C 573.925781 100.105469 577.640625 103.003906 581.285156 105.992188 C 584.925781 108.980469 588.492188 112.058594 591.984375 115.222656 C 595.476562 118.386719 598.886719 121.636719 602.21875 124.96875 C 605.550781 128.300781 608.800781 131.710938 611.964844 135.203125 C 615.128906 138.695312 618.207031 142.261719 621.195312 145.90625 C 624.183594 149.546875 627.082031 153.261719 629.890625 157.046875 C 632.695312 160.832031 635.410156 164.683594 638.027344 168.601562 C 640.644531 172.519531 643.164062 176.5 645.589844 180.539062 C 648.011719 184.582031 650.332031 188.679688 652.554688 192.835938 C 654.773438 196.992188 656.894531 201.199219 658.90625 205.460938 C 660.921875 209.71875 662.832031 214.027344 664.636719 218.378906 C 666.4375 222.734375 668.132812 227.128906 669.722656 231.566406 C 671.308594 236 672.785156 240.472656 674.152344 244.984375 C 675.523438 249.492188 676.777344 254.03125 677.921875 258.605469 C 679.070312 263.175781 680.101562 267.769531 681.019531 272.394531 C 681.9375 277.015625 682.746094 281.65625 683.4375 286.316406 C 684.128906 290.976562 684.703125 295.652344 685.164062 300.34375 C 685.628906 305.03125 685.972656 309.730469 686.207031 314.4375 C 686.4375 319.144531 686.550781 323.851562 686.550781 328.566406 Z M 686.550781 328.566406 " fill-opacity="1" fill-rule="nonzero"/><path fill="#345d9d" d="M 398.621094 5.691406 C 393.339844 5.691406 388.058594 5.820312 382.78125 6.078125 C 377.503906 6.339844 372.234375 6.726562 366.976562 7.246094 C 361.71875 7.761719 356.472656 8.410156 351.246094 9.183594 C 346.019531 9.960938 340.816406 10.863281 335.632812 11.894531 C 330.449219 12.925781 325.296875 14.082031 320.171875 15.367188 C 315.042969 16.648438 309.953125 18.058594 304.898438 19.59375 C 299.839844 21.128906 294.824219 22.785156 289.847656 24.5625 C 284.875 26.34375 279.945312 28.246094 275.0625 30.269531 C 270.183594 32.289062 265.351562 34.429688 260.574219 36.691406 C 255.800781 38.949219 251.082031 41.324219 246.421875 43.816406 C 241.761719 46.304688 237.164062 48.910156 232.632812 51.625 C 228.101562 54.34375 223.636719 57.167969 219.242188 60.105469 C 214.847656 63.039062 210.53125 66.082031 206.285156 69.230469 C 202.042969 72.378906 197.878906 75.628906 193.792969 78.980469 C 189.707031 82.332031 185.707031 85.78125 181.792969 89.332031 C 177.878906 92.878906 174.050781 96.523438 170.316406 100.257812 C 166.578125 103.996094 162.9375 107.820312 159.386719 111.734375 C 155.839844 115.652344 152.390625 119.652344 149.039062 123.734375 C 145.683594 127.820312 142.433594 131.984375 139.289062 136.230469 C 136.140625 140.472656 133.097656 144.792969 130.164062 149.183594 C 127.226562 153.578125 124.398438 158.042969 121.683594 162.574219 C 118.96875 167.105469 116.363281 171.703125 113.871094 176.363281 C 111.382812 181.023438 109.007812 185.742188 106.746094 190.519531 C 104.488281 195.296875 102.347656 200.125 100.324219 205.007812 C 98.304688 209.886719 96.402344 214.816406 94.621094 219.792969 C 92.839844 224.765625 91.183594 229.78125 89.652344 234.839844 C 88.117188 239.894531 86.707031 244.988281 85.425781 250.113281 C 84.140625 255.238281 82.984375 260.394531 81.953125 265.574219 C 80.921875 270.757812 80.019531 275.960938 79.242188 281.191406 C 78.46875 286.417969 77.820312 291.660156 77.300781 296.917969 C 76.785156 302.175781 76.394531 307.445312 76.136719 312.722656 C 75.878906 318 75.746094 323.28125 75.746094 328.566406 C 75.746094 333.847656 75.878906 339.128906 76.136719 344.40625 C 76.394531 349.6875 76.785156 354.953125 77.300781 360.210938 C 77.820312 365.472656 78.46875 370.714844 79.242188 375.941406 C 80.019531 381.167969 80.921875 386.371094 81.953125 391.554688 C 82.984375 396.738281 84.140625 401.890625 85.425781 407.015625 C 86.707031 412.144531 88.117188 417.234375 89.652344 422.289062 C 91.183594 427.347656 92.839844 432.363281 94.621094 437.339844 C 96.402344 442.3125 98.304688 447.242188 100.324219 452.125 C 102.347656 457.007812 104.488281 461.835938 106.746094 466.613281 C 109.007812 471.390625 111.382812 476.105469 113.871094 480.765625 C 116.363281 485.425781 118.96875 490.023438 121.683594 494.554688 C 124.398438 499.089844 127.226562 503.550781 130.164062 507.945312 C 133.097656 512.339844 136.140625 516.65625 139.289062 520.902344 C 142.433594 525.144531 145.683594 529.308594 149.039062 533.394531 C 152.390625 537.480469 155.839844 541.480469 159.386719 545.394531 C 162.9375 549.308594 166.578125 553.136719 170.316406 556.871094 C 174.050781 560.609375 177.878906 564.25 181.792969 567.800781 C 185.707031 571.347656 189.707031 574.796875 193.792969 578.152344 C 197.878906 581.503906 202.042969 584.753906 206.285156 587.902344 C 210.53125 591.046875 214.847656 594.089844 219.242188 597.027344 C 223.636719 599.960938 228.101562 602.789062 232.632812 605.503906 C 237.164062 608.222656 241.761719 610.824219 246.421875 613.316406 C 251.082031 615.804688 255.800781 618.179688 260.574219 620.441406 C 265.351562 622.699219 270.183594 624.839844 275.0625 626.863281 C 279.945312 628.886719 284.875 630.785156 289.847656 632.566406 C 294.824219 634.347656 299.839844 636.003906 304.898438 637.539062 C 309.953125 639.070312 315.046875 640.480469 320.171875 641.765625 C 325.296875 643.046875 330.449219 644.207031 335.632812 645.234375 C 340.816406 646.265625 346.019531 647.171875 351.246094 647.945312 C 356.472656 648.722656 361.71875 649.367188 366.976562 649.886719 C 372.234375 650.402344 377.503906 650.792969 382.78125 651.050781 C 388.058594 651.3125 393.339844 651.441406 398.621094 651.441406 C 403.90625 651.441406 409.1875 651.3125 414.464844 651.050781 C 419.742188 650.792969 425.011719 650.402344 430.269531 649.886719 C 435.527344 649.367188 440.773438 648.722656 446 647.945312 C 451.226562 647.171875 456.429688 646.265625 461.613281 645.234375 C 466.796875 644.207031 471.949219 643.046875 477.074219 641.765625 C 482.199219 640.480469 487.292969 639.070312 492.347656 637.539062 C 497.40625 636.003906 502.421875 634.347656 507.394531 632.566406 C 512.371094 630.785156 517.300781 628.886719 522.183594 626.863281 C 527.0625 624.839844 531.894531 622.699219 536.667969 620.441406 C 541.445312 618.179688 546.164062 615.804688 550.824219 613.316406 C 555.484375 610.824219 560.082031 608.222656 564.613281 605.503906 C 569.144531 602.789062 573.609375 599.960938 578.003906 597.027344 C 582.394531 594.089844 586.714844 591.046875 590.960938 587.902344 C 595.203125 584.753906 599.367188 581.503906 603.453125 578.152344 C 607.539062 574.800781 611.539062 571.347656 615.453125 567.800781 C 619.367188 564.25 623.195312 560.609375 626.929688 556.871094 C 630.667969 553.136719 634.308594 549.308594 637.859375 545.394531 C 641.40625 541.480469 644.855469 537.480469 648.207031 533.394531 C 651.5625 529.308594 654.8125 525.144531 657.957031 520.902344 C 661.105469 516.65625 664.148438 512.339844 667.082031 507.945312 C 670.019531 503.550781 672.84375 499.089844 675.5625 494.554688 C 678.277344 490.023438 680.882812 485.425781 683.375 480.765625 C 685.863281 476.105469 688.238281 471.390625 690.5 466.613281 C 692.757812 461.835938 694.898438 457.007812 696.921875 452.125 C 698.941406 447.242188 700.84375 442.3125 702.625 437.339844 C 704.402344 432.363281 706.0625 427.347656 707.59375 422.289062 C 709.128906 417.234375 710.539062 412.144531 711.820312 407.015625 C 713.105469 401.890625 714.261719 396.738281 715.292969 391.554688 C 716.324219 386.371094 717.226562 381.167969 718.003906 375.941406 C 718.777344 370.714844 719.425781 365.472656 719.941406 360.210938 C 720.460938 354.953125 720.851562 349.6875 721.109375 344.40625 C 721.367188 339.128906 721.496094 333.847656 721.496094 328.566406 C 721.511719 323.296875 721.398438 318.03125 721.15625 312.765625 C 720.914062 307.503906 720.539062 302.25 720.039062 297.003906 C 719.539062 291.761719 718.910156 286.53125 718.152344 281.316406 C 717.394531 276.101562 716.507812 270.910156 715.496094 265.742188 C 714.480469 260.570312 713.34375 255.425781 712.078125 250.3125 C 710.8125 245.199219 709.421875 240.117188 707.90625 235.070312 C 706.394531 230.023438 704.753906 225.019531 702.996094 220.054688 C 701.234375 215.085938 699.351562 210.167969 697.351562 205.292969 C 695.347656 200.421875 693.230469 195.597656 690.988281 190.828125 C 688.75 186.058594 686.398438 181.347656 683.925781 176.695312 C 681.457031 172.039062 678.875 167.449219 676.179688 162.921875 C 673.484375 158.394531 670.679688 153.9375 667.761719 149.546875 C 664.847656 145.160156 661.828125 140.84375 658.703125 136.601562 C 655.578125 132.363281 652.347656 128.199219 649.015625 124.117188 C 645.6875 120.035156 642.257812 116.035156 638.730469 112.121094 C 635.203125 108.207031 631.582031 104.382812 627.867188 100.644531 C 624.152344 96.910156 620.351562 93.265625 616.457031 89.71875 C 612.5625 86.167969 608.585938 82.714844 604.519531 79.359375 C 600.457031 76.007812 596.316406 72.753906 592.09375 69.601562 C 587.871094 66.453125 583.574219 63.40625 579.199219 60.46875 C 574.828125 57.527344 570.386719 54.695312 565.875 51.972656 C 561.363281 49.253906 556.789062 46.644531 552.148438 44.144531 C 547.507812 41.648438 542.8125 39.265625 538.054688 37 C 533.296875 34.734375 528.488281 32.585938 523.628906 30.554688 C 518.765625 28.523438 513.855469 26.613281 508.902344 24.824219 C 503.945312 23.035156 498.949219 21.367188 493.914062 19.824219 C 488.875 18.28125 483.800781 16.859375 478.695312 15.566406 C 473.589844 14.269531 468.453125 13.101562 463.289062 12.058594 C 458.125 11.015625 452.9375 10.101562 447.726562 9.3125 C 442.519531 8.523438 437.292969 7.863281 432.050781 7.332031 C 426.808594 6.800781 421.554688 6.398438 416.292969 6.125 C 411.03125 5.851562 405.769531 5.707031 400.5 5.691406 Z M 404.09375 339.511719 L 370.480469 452.867188 L 550.289062 452.867188 C 550.882812 452.847656 551.476562 452.886719 552.0625 452.980469 C 552.652344 453.078125 553.226562 453.230469 553.78125 453.4375 C 554.339844 453.644531 554.875 453.90625 555.378906 454.222656 C 555.886719 454.535156 556.359375 454.894531 556.792969 455.300781 C 557.230469 455.707031 557.621094 456.152344 557.96875 456.636719 C 558.316406 457.121094 558.613281 457.632812 558.859375 458.175781 C 559.109375 458.71875 559.300781 459.28125 559.433594 459.859375 C 559.570312 460.441406 559.648438 461.027344 559.667969 461.625 L 559.667969 464.59375 L 544.035156 518.539062 C 543.863281 519.171875 543.640625 519.785156 543.363281 520.378906 C 543.089844 520.976562 542.765625 521.542969 542.394531 522.085938 C 542.023438 522.625 541.613281 523.132812 541.15625 523.605469 C 540.699219 524.074219 540.207031 524.503906 539.675781 524.890625 C 539.148438 525.28125 538.589844 525.621094 538.003906 525.914062 C 537.417969 526.207031 536.8125 526.449219 536.183594 526.640625 C 535.554688 526.832031 534.917969 526.96875 534.265625 527.054688 C 533.617188 527.136719 532.960938 527.164062 532.308594 527.136719 L 257.121094 527.136719 L 303.246094 370 L 251.648438 385.636719 L 263.375 349.671875 L 314.972656 334.039062 L 379.859375 113.574219 C 380.039062 112.945312 380.265625 112.335938 380.542969 111.742188 C 380.824219 111.152344 381.148438 110.585938 381.523438 110.050781 C 381.894531 109.511719 382.308594 109.007812 382.765625 108.539062 C 383.222656 108.070312 383.714844 107.644531 384.242188 107.257812 C 384.769531 106.867188 385.324219 106.527344 385.910156 106.234375 C 386.496094 105.9375 387.097656 105.695312 387.722656 105.5 C 388.347656 105.308594 388.984375 105.167969 389.632812 105.078125 C 390.28125 104.988281 390.933594 104.957031 391.585938 104.976562 L 461.164062 104.976562 C 461.761719 104.957031 462.351562 104.992188 462.941406 105.089844 C 463.527344 105.183594 464.101562 105.335938 464.660156 105.546875 C 465.21875 105.753906 465.75 106.015625 466.257812 106.328125 C 466.765625 106.644531 467.234375 107.003906 467.671875 107.410156 C 468.105469 107.816406 468.5 108.261719 468.847656 108.746094 C 469.195312 109.230469 469.492188 109.742188 469.738281 110.285156 C 469.984375 110.828125 470.175781 111.386719 470.3125 111.96875 C 470.449219 112.546875 470.527344 113.136719 470.546875 113.730469 L 470.546875 116.703125 L 415.820312 302.765625 L 467.417969 287.132812 L 456.472656 324.65625 Z M 404.09375 339.511719 " fill-opacity="1" fill-rule="nonzero"/></g></svg>